# xmcd
# Track frame offsets:
# 150
# 17525
# 30547
# 43664
# 61066
# 78047
# 94178
# 110718
# 128478
# 149668
# 163217
# 179753
# 196146
# 211160
# 228655
#
# Disc length: 3236 seconds
# Revision: 0
# Processed by: cddbd v1.5.1PL0 Copyright (c) Steve Scherf et al.
# Submitted via: VisiTrax 2.9.10.228 - For more info visit www.synapsa.com
#
DISCID=ca0ca20f
DTITLE=Diffie, Joe - CB90019
DYEAR=1900
DGENRE=Karaoke
TTITLE0=If You Want Me To
TTITLE1=If The Devil Danced In Empty Pockets
TTITLE2=New Way To Light Up An Old Flame
TTITLE3=Is It Cold In Here Or Is It You
TTITLE4=Ships That Don't Come In
TTITLE5=Next Thing Smokin'
TTITLE6=Honky Tonk Attitude
TTITLE7=Prop Me Up Beside The Jukebox
TTITLE8=John Deere Green
TTITLE9=Third Rock From The Sun
TTITLE10=Pickup Man
TTITLE11=So Help Me Girl
TTITLE12=I'm In Love With A Capital "U"
TTITLE13=Bigger Than The Beatles
TTITLE14=Poor Me
EXTD=
EXTT0=
EXTT1=
EXTT2=
EXTT3=
EXTT4=
EXTT5=
EXTT6=
EXTT7=
EXTT8=
EXTT9=
EXTT10=
EXTT11=
EXTT12=
EXTT13=
EXTT14=
PLAYORDER=
